# xmcd
#
# Track frame offsets:
#	150
#	29159
#	42970
#	57306
#	71819
#	88134
#	103192
#	119733
#	136652
#	152852
#	170779
#	187113
#
# Disc length: 2733 seconds
#
# Revision: 0
# Processed by: cddbd v1.5.2PL0 Copyright (c) Steve Scherf et al.
# Submitted via: FairStars CD Ripper 1.90
#
DISCID=bb0aab0c
DTITLE=Alabama - Box Set CD #1
DYEAR=2013
DGENRE=Country
TTITLE0=My Home's In Alabama
TTITLE1=Tennessee River
TTITLE2=Why Lady Why
TTITLE3=Old Flame
TTITLE4=Feels So Right
TTITLE5=Love In The First Degree
TTITLE6=Mountain Music
TTITLE7=Take Me Down
TTITLE8=Close Enough To Perfect
TTITLE9=Dixieland Delight
TTITLE10=The Closer You Get
TTITLE11=Lady Down On Love
EXTD=
EXTT0=
EXTT1=
EXTT2=
EXTT3=
EXTT4=
EXTT5=
EXTT6=
EXTT7=
EXTT8=
EXTT9=
EXTT10=
EXTT11=
PLAYORDER=
